<?xml version="1.0" standalone="no"?>
<!DOCTYPE svg PUBLIC "-//W3C//DTD SVG 20010904//EN"
 "http://www.w3.org/TR/2001/REC-SVG-20010904/DTD/svg10.dtd">
<svg version="1.0" xmlns="http://www.w3.org/2000/svg"
 width="700.000000pt" height="700.000000pt" viewBox="0 0 700.000000 700.000000"
 preserveAspectRatio="xMidYMid meet">
<metadata>
Created by potrace 1.14, written by Peter Selinger 2001-2017
</metadata>
<g transform="translate(0.000000,700.000000) scale(0.100000,-0.100000)"
fill="#000000" stroke="none">
<path d="M3249 6996 c-2 -2 -44 -7 -94 -10 -49 -4 -99 -9 -110 -11 -11 -2 -38
-6 -60 -9 -65 -8 -177 -26 -225 -37 -25 -6 -56 -13 -70 -15 -118 -22 -413
-115 -535 -169 -16 -7 -59 -25 -95 -40 -60 -25 -215 -103 -285 -143 -157 -90
-290 -177 -417 -274 -136 -104 -207 -166 -343 -303 -391 -391 -674 -849 -841
-1363 -63 -193 -123 -446 -138 -583 -4 -31 -9 -67 -11 -79 -20 -103 -27 -586
-11 -735 26 -246 57 -416 118 -630 30 -107 95 -297 122 -359 8 -17 31 -69 52
-116 209 -478 573 -946 998 -1284 228 -182 465 -325 771 -467 120 -55 413
-156 506 -174 9 -2 34 -8 57 -14 92 -24 118 -30 152 -36 19 -3 46 -7 60 -10
14 -3 41 -7 60 -10 19 -3 46 -7 60 -10 14 -3 52 -7 85 -10 33 -3 96 -9 140
-14 90 -9 487 -7 580 3 112 13 182 22 235 31 8 1 35 6 60 10 142 23 345 76
510 132 177 60 546 227 610 277 8 6 31 20 50 30 41 22 233 150 272 180 14 12
41 32 59 46 118 89 209 170 352 314 470 472 791 1071 927 1733 12 54 23 118
26 143 3 25 7 52 9 60 2 8 7 40 10 70 3 30 8 69 11 85 9 57 12 530 3 620 -10
111 -22 209 -34 275 -146 873 -610 1648 -1305 2181 -304 234 -628 408 -990
534 -203 70 -527 143 -710 161 -36 3 -76 8 -90 11 -29 5 -525 14 -531 9z m541
-696 c0 -5 6 -10 13 -10 6 0 46 -28 86 -63 360 -301 662 -964 786 -1722 4 -22
9 -49 10 -60 8 -48 34 -246 41 -310 37 -375 37 -878 -2 -1210 -3 -27 -7 -66
-9 -85 -10 -94 -25 -193 -30 -199 -13 -12 -166 107 -274 212 -150 146 -251
283 -555 756 l-99 153 -1 1270 c-1 698 1 1272 3 1274 8 8 31 4 31 -6z m-625
-925 c0 -503 -2 -915 -5 -915 -3 0 -39 25 -80 56 -193 144 -409 253 -641 324
l-75 23 24 91 c150 570 415 1053 704 1286 34 27 64 50 67 50 4 0 6 -412 6
-915z m-952 718 c-33 -46 -148 -280 -201 -408 -48 -114 -158 -425 -166 -470
-2 -11 -13 -52 -24 -90 -11 -39 -26 -91 -33 -116 l-12 -45 -146 0 c-151 0
-285 -10 -368 -28 -15 -4 -37 -8 -48 -10 -87 -17 -276 -79 -302 -99 -21 -16
-15 1 29 81 64 120 196 317 286 429 115 143 294 322 427 428 27 22 55 45 62
51 29 28 257 176 348 226 174 97 182 100 148 51z m2757 -117 c255 -160 534
-403 701 -611 378 -469 596 -1007 645 -1585 14 -160 8 -465 -11 -597 -10 -63
-34 -206 -40 -237 -3 -16 -7 -34 -8 -40 -1 -6 -5 -13 -8 -16 -3 -3 -13 -25
-23 -50 -47 -121 -139 -244 -234 -313 -147 -106 -264 -139 -487 -133 -82 2
-163 6 -180 10 -68 14 -74 17 -70 29 4 10 24 150 50 342 4 32 14 125 20 190
27 285 27 903 0 1136 -2 19 -6 61 -10 94 -65 680 -279 1414 -543 1864 l-25 43
79 -42 c43 -24 108 -61 144 -84z m-3305 -1645 c-2 -20 -7 -58 -10 -86 -2 -27
-7 -77 -11 -110 -14 -125 -26 -412 -27 -600 0 -138 9 -377 18 -485 63 -760
218 -1363 486 -1897 53 -106 95 -193 93 -193 -11 0 -197 104 -284 159 -446
284 -793 666 -1030 1136 -230 457 -327 929 -300 1470 3 65 11 94 32 116 7 8
31 34 52 59 212 245 369 361 576 424 102 31 173 42 283 45 45 1 83 4 85 6 2 1
12 1 23 -2 16 -5 19 -12 14 -42z m665 -81 c282 -95 532 -287 767 -587 l67 -85
0 -1385 c1 -761 -1 -1391 -5 -1400 -4 -12 -19 -4 -70 38 -171 141 -324 349
-456 619 -226 461 -365 1039 -410 1700 -15 216 -8 744 12 930 8 65 17 165 18
178 1 16 7 15 77 -8z m1656 -1805 c164 -166 323 -287 494 -376 34 -18 64 -38
67 -45 8 -22 -73 -257 -154 -444 -85 -196 -213 -417 -316 -545 -106 -132 -305
-301 -317 -269 -4 10 -5 1863 -1 1922 1 7 34 -27 75 -75 40 -48 109 -124 152
-168z m1195 -616 c56 -10 78 -14 164 -25 63 -9 296 -10 352 -2 l42 5 -24 -34
c-35 -52 -147 -176 -251 -279 -167 -165 -391 -334 -600 -452 -93 -53 -115 -62
-96 -39 14 16 132 253 172 347 44 101 105 263 142 379 30 94 36 111 42 111 2
0 28 -5 57 -11z"/>
</g>
</svg>
